<?xml version="1.0" encoding="UTF-8" standalone="no"?>
<!DOCTYPE svg PUBLIC "-//W3C//DTD SVG 1.1//EN"
 "http://www.w3.org/Graphics/SVG/1.1/DTD/svg11.dtd">
<!-- Generated by graphviz version 9.0.0 (20230911.1827)
 -->
<!-- Pages: 1 -->
<svg width="684pt" height="236pt"
 viewBox="0.00 0.00 684.25 236.25" xmlns="http://www.w3.org/2000/svg" xmlns:xlink="http://www.w3.org/1999/xlink">
<g id="graph0" class="graph" transform="scale(1 1) rotate(0) translate(4 232.25)">
<polygon fill="white" stroke="none" points="-4,4 -4,-232.25 680.25,-232.25 680.25,4 -4,4"/>
<!-- Recipe -->
<g id="node1" class="node">
<title>Recipe</title>
<polygon fill="none" stroke="black" points="396.5,-149.25 396.5,-178.75 476.25,-178.75 476.25,-149.25 396.5,-149.25"/>
<text text-anchor="start" x="406.75" y="-159.55" font-family="Helvetica,sans-Serif" font-weight="bold" font-size="16.00">Recipe</text>
<polygon fill="none" stroke="black" points="396.5,-122 396.5,-149.25 476.25,-149.25 476.25,-122 396.5,-122"/>
<text text-anchor="start" x="401.5" y="-131.95" font-family="Helvetica,sans-Serif" text-decoration="underline" font-size="14.00">id</text>
<polygon fill="none" stroke="black" points="396.5,-94.75 396.5,-122 476.25,-122 476.25,-94.75 396.5,-94.75"/>
<text text-anchor="start" x="401.5" y="-103.7" font-family="Helvetica,sans-Serif" font-size="14.00">name</text>
<polygon fill="none" stroke="black" points="396.5,-67.5 396.5,-94.75 476.25,-94.75 476.25,-67.5 396.5,-67.5"/>
<text text-anchor="start" x="401.5" y="-77.45" font-family="Helvetica,sans-Serif" font-style="italic" font-size="14.00">createdBy</text>
</g>
<!-- Ingredient -->
<g id="node2" class="node">
<title>Ingredient</title>
<polygon fill="none" stroke="black" points="565.25,-176.5 565.25,-206 668.25,-206 668.25,-176.5 565.25,-176.5"/>
<text text-anchor="start" x="570.25" y="-186.8" font-family="Helvetica,sans-Serif" font-weight="bold" font-size="16.00">Ingredient</text>
<polygon fill="none" stroke="black" points="565.25,-149.25 565.25,-176.5 668.25,-176.5 668.25,-149.25 565.25,-149.25"/>
<text text-anchor="start" x="570.25" y="-159.2" font-family="Helvetica,sans-Serif" text-decoration="underline" font-size="14.00">id</text>
<polygon fill="none" stroke="black" points="565.25,-122 565.25,-149.25 668.25,-149.25 668.25,-122 565.25,-122"/>
<text text-anchor="start" x="570.25" y="-130.95" font-family="Helvetica,sans-Serif" font-size="14.00">name</text>
<polygon fill="none" stroke="black" points="565.25,-94.75 565.25,-122 668.25,-122 668.25,-94.75 565.25,-94.75"/>
<text text-anchor="start" x="570.25" y="-103.7" font-family="Helvetica,sans-Serif" font-size="14.00">amount</text>
<polygon fill="none" stroke="black" points="565.25,-67.5 565.25,-94.75 668.25,-94.75 668.25,-67.5 565.25,-67.5"/>
<text text-anchor="start" x="570.25" y="-76.45" font-family="Helvetica,sans-Serif" font-size="14.00">unit</text>
<polygon fill="none" stroke="black" points="565.25,-40.25 565.25,-67.5 668.25,-67.5 668.25,-40.25 565.25,-40.25"/>
<text text-anchor="start" x="570.25" y="-50.2" font-family="Helvetica,sans-Serif" font-style="italic" font-size="14.00">recipeId</text>
</g>
<!-- Recipe&#45;&#45;Ingredient -->
<g id="edge2" class="edge">
<title>Recipe&#45;&#45;Ingredient</title>
<path fill="none" stroke="#7f7f7f" stroke-dasharray="5,2" d="M484.24,-123.12C506.64,-123.12 533.68,-123.12 557.39,-123.12"/>
<text text-anchor="start" x="527.39" y="-127.08" font-family="Times,serif" font-size="14.00">0..N</text>
<text text-anchor="start" x="484.24" y="-109.83" font-family="Times,serif" font-size="14.00">1</text>
</g>
<!-- User -->
<g id="node3" class="node">
<title>User</title>
<polygon fill="none" stroke="black" points="8,-194.75 8,-224.25 95.25,-224.25 95.25,-194.75 8,-194.75"/>
<text text-anchor="start" x="31" y="-205.05" font-family="Helvetica,sans-Serif" font-weight="bold" font-size="16.00">User</text>
<polygon fill="none" stroke="black" points="8,-167.5 8,-194.75 95.25,-194.75 95.25,-167.5 8,-167.5"/>
<text text-anchor="start" x="13" y="-177.45" font-family="Helvetica,sans-Serif" text-decoration="underline" font-size="14.00">id</text>
<polygon fill="none" stroke="black" points="8,-140.25 8,-167.5 95.25,-167.5 95.25,-140.25 8,-140.25"/>
<text text-anchor="start" x="13" y="-149.2" font-family="Helvetica,sans-Serif" font-size="14.00">firstName</text>
<polygon fill="none" stroke="black" points="8,-113 8,-140.25 95.25,-140.25 95.25,-113 8,-113"/>
<text text-anchor="start" x="13" y="-121.95" font-family="Helvetica,sans-Serif" font-size="14.00">lastName</text>
<polygon fill="none" stroke="black" points="8,-85.75 8,-113 95.25,-113 95.25,-85.75 8,-85.75"/>
<text text-anchor="start" x="13" y="-94.7" font-family="Helvetica,sans-Serif" font-size="14.00">street</text>
<polygon fill="none" stroke="black" points="8,-58.5 8,-85.75 95.25,-85.75 95.25,-58.5 8,-58.5"/>
<text text-anchor="start" x="13" y="-67.45" font-family="Helvetica,sans-Serif" font-size="14.00">number</text>
<polygon fill="none" stroke="black" points="8,-31.25 8,-58.5 95.25,-58.5 95.25,-31.25 8,-31.25"/>
<text text-anchor="start" x="13" y="-40.2" font-family="Helvetica,sans-Serif" font-size="14.00">postalCode</text>
<polygon fill="none" stroke="black" points="8,-4 8,-31.25 95.25,-31.25 95.25,-4 8,-4"/>
<text text-anchor="start" x="13" y="-12.95" font-family="Helvetica,sans-Serif" font-size="14.00">city</text>
</g>
<!-- User&#45;&#45;Recipe -->
<g id="edge1" class="edge">
<title>User&#45;&#45;Recipe</title>
<path fill="none" stroke="#7f7f7f" stroke-dasharray="5,2" d="M102.97,-123.14C125.33,-126.71 152.02,-130.37 176.25,-132.12 237.98,-136.6 253.65,-134.44 315.5,-132.12 339.69,-131.22 366.57,-129.29 388.74,-127.44"/>
<text text-anchor="start" x="358.74" y="-131.39" font-family="Times,serif" font-size="14.00">0..N</text>
<text text-anchor="start" x="102.97" y="-109.84" font-family="Times,serif" font-size="14.00">1</text>
</g>
<!-- SavedRecipe -->
<g id="node4" class="node">
<title>SavedRecipe</title>
<polygon fill="none" stroke="black" points="184.25,-89.62 184.25,-119.12 307.5,-119.12 307.5,-89.62 184.25,-89.62"/>
<text text-anchor="start" x="189.25" y="-99.92" font-family="Helvetica,sans-Serif" font-weight="bold" font-size="16.00">SavedRecipe</text>
<polygon fill="none" stroke="black" points="184.25,-62.38 184.25,-89.62 307.5,-89.62 307.5,-62.38 184.25,-62.38"/>
<text text-anchor="start" x="189.25" y="-72.33" font-family="Helvetica,sans-Serif" font-style="italic" text-decoration="underline" font-size="14.00">userId</text>
<polygon fill="none" stroke="black" points="184.25,-35.12 184.25,-62.38 307.5,-62.38 307.5,-35.12 184.25,-35.12"/>
<text text-anchor="start" x="189.25" y="-45.08" font-family="Helvetica,sans-Serif" font-style="italic" text-decoration="underline" font-size="14.00">recipeId</text>
</g>
<!-- User&#45;&#45;SavedRecipe -->
<g id="edge3" class="edge">
<title>User&#45;&#45;SavedRecipe</title>
<path fill="none" stroke="#7f7f7f" stroke-dasharray="5,2" d="M103.14,-104.4C125.5,-100.1 152.15,-94.97 176.27,-90.33"/>
<text text-anchor="start" x="146.27" y="-94.28" font-family="Times,serif" font-size="14.00">0..N</text>
<text text-anchor="start" x="103.14" y="-91.1" font-family="Times,serif" font-size="14.00">1</text>
</g>
<!-- SavedRecipe&#45;&#45;Recipe -->
<g id="edge4" class="edge">
<title>SavedRecipe&#45;&#45;Recipe</title>
<path fill="none" stroke="#7f7f7f" stroke-dasharray="5,2" d="M315.46,-93.86C339.78,-99.8 366.56,-106.33 388.64,-111.72"/>
<text text-anchor="start" x="379.64" y="-98.42" font-family="Times,serif" font-size="14.00">1</text>
<text text-anchor="start" x="315.46" y="-80.56" font-family="Times,serif" font-size="14.00">0..N</text>
</g>
</g>
</svg>
