<?xml version="1.0" encoding="UTF-8" standalone="no"?>
<!DOCTYPE svg PUBLIC "-//W3C//DTD SVG 1.1//EN"
 "http://www.w3.org/Graphics/SVG/1.1/DTD/svg11.dtd">
<!-- Generated by graphviz version 9.0.0 (20230911.1827)
 -->
<!-- Pages: 1 -->
<svg width="453pt" height="155pt"
 viewBox="0.00 0.00 452.50 154.50" xmlns="http://www.w3.org/2000/svg" xmlns:xlink="http://www.w3.org/1999/xlink">
<g id="graph0" class="graph" transform="scale(1 1) rotate(0) translate(4 150.5)">
<polygon fill="white" stroke="none" points="-4,4 -4,-150.5 448.5,-150.5 448.5,4 -4,4"/>
<!-- Recipe -->
<g id="node1" class="node">
<title>Recipe</title>
<polygon fill="none" stroke="black" points="175.25,-72.12 175.25,-101.62 244.5,-101.62 244.5,-72.12 175.25,-72.12"/>
<text text-anchor="start" x="180.25" y="-82.42" font-family="Helvetica,sans-Serif" font-weight="bold" font-size="16.00">Recipe</text>
<polygon fill="none" stroke="black" points="175.25,-44.88 175.25,-72.12 244.5,-72.12 244.5,-44.88 175.25,-44.88"/>
<text text-anchor="start" x="180.25" y="-54.83" font-family="Helvetica,sans-Serif" text-decoration="underline" font-size="14.00">name</text>
</g>
<!-- Ingredient -->
<g id="node2" class="node">
<title>Ingredient</title>
<polygon fill="none" stroke="black" points="333.5,-99.38 333.5,-128.88 436.5,-128.88 436.5,-99.38 333.5,-99.38"/>
<text text-anchor="start" x="338.5" y="-109.67" font-family="Helvetica,sans-Serif" font-weight="bold" font-size="16.00">Ingredient</text>
<polygon fill="none" stroke="black" points="333.5,-72.12 333.5,-99.38 436.5,-99.38 436.5,-72.12 333.5,-72.12"/>
<text text-anchor="start" x="338.5" y="-82.08" font-family="Helvetica,sans-Serif" text-decoration="underline" font-size="14.00">name</text>
<polygon fill="none" stroke="black" points="333.5,-44.88 333.5,-72.12 436.5,-72.12 436.5,-44.88 333.5,-44.88"/>
<text text-anchor="start" x="338.5" y="-53.83" font-family="Helvetica,sans-Serif" font-size="14.00">amount</text>
<polygon fill="none" stroke="black" points="333.5,-17.62 333.5,-44.88 436.5,-44.88 436.5,-17.62 333.5,-17.62"/>
<text text-anchor="start" x="338.5" y="-26.57" font-family="Helvetica,sans-Serif" font-size="14.00">unit</text>
</g>
<!-- Recipe&#45;&#45;Ingredient -->
<g id="edge2" class="edge">
<title>Recipe&#45;&#45;Ingredient</title>
<path fill="none" stroke="#7f7f7f" stroke-dasharray="5,2" d="M252.34,-73.25C274.25,-73.25 301.5,-73.25 325.52,-73.25"/>
<text text-anchor="start" x="295.52" y="-59.95" font-family="Times,serif" font-size="14.00">0..N</text>
<text text-anchor="start" x="252.34" y="-59.95" font-family="Times,serif" font-size="14.00">1</text>
</g>
<!-- User -->
<g id="node3" class="node">
<title>User</title>
<polygon fill="none" stroke="black" points="8,-113 8,-142.5 86.25,-142.5 86.25,-113 8,-113"/>
<text text-anchor="start" x="26.5" y="-123.3" font-family="Helvetica,sans-Serif" font-weight="bold" font-size="16.00">User</text>
<polygon fill="none" stroke="black" points="8,-85.75 8,-113 86.25,-113 86.25,-85.75 8,-85.75"/>
<text text-anchor="start" x="13" y="-95.7" font-family="Helvetica,sans-Serif" text-decoration="underline" font-size="14.00">id</text>
<polygon fill="none" stroke="black" points="8,-58.5 8,-85.75 86.25,-85.75 86.25,-58.5 8,-58.5"/>
<text text-anchor="start" x="13" y="-67.45" font-family="Helvetica,sans-Serif" font-size="14.00">firstName</text>
<polygon fill="none" stroke="black" points="8,-31.25 8,-58.5 86.25,-58.5 86.25,-31.25 8,-31.25"/>
<text text-anchor="start" x="13" y="-40.2" font-family="Helvetica,sans-Serif" font-size="14.00">lastName</text>
<polygon fill="none" stroke="black" points="8,-4 8,-31.25 86.25,-31.25 86.25,-4 8,-4"/>
<text text-anchor="start" x="13" y="-12.95" font-family="Helvetica,sans-Serif" font-size="14.00">address</text>
</g>
<!-- User&#45;&#45;Recipe -->
<g id="edge1" class="edge">
<title>User&#45;&#45;Recipe</title>
<path fill="none" stroke="#7f7f7f" stroke-dasharray="5,2" d="M94.19,-67.08C117.29,-66.25 145.05,-66.31 167.47,-67.26"/>
<text text-anchor="start" x="137.47" y="-53.96" font-family="Times,serif" font-size="14.00">0..N</text>
<text text-anchor="start" x="94.19" y="-53.78" font-family="Times,serif" font-size="14.00">1</text>
</g>
<!-- User&#45;&#45;Recipe -->
<g id="edge3" class="edge">
<title>User&#45;&#45;Recipe</title>
<path fill="none" stroke="#7f7f7f" stroke-dasharray="5,2" d="M94.19,-79.42C117.29,-80.25 145.05,-80.19 167.47,-79.24"/>
<text text-anchor="start" x="137.47" y="-83.19" font-family="Times,serif" font-size="14.00">0..N</text>
<text text-anchor="start" x="94.19" y="-83.37" font-family="Times,serif" font-size="14.00">0..N</text>
</g>
</g>
</svg>
